<?xml version="1.0" encoding="utf-8"?>
<!-- Generator: Adobe Illustrator 22.1.0, SVG Export Plug-In . SVG Version: 6.00 Build 0)  -->
<svg version="1.1" id="Layer_1" xmlns="http://www.w3.org/2000/svg" xmlns:xlink="http://www.w3.org/1999/xlink" x="0px" y="0px"
	 viewBox="0 0 116.8 84" style="enable-background:new 0 0 116.8 84;" xml:space="preserve">
<style type="text/css">
	.st0{fill:#9AA0A6;}
</style>
<path class="st0" d="M102.4,10.5C88-0.3,74.3,0,74.3,0l-1.4,1.6c17,5.2,24.9,12.7,24.9,12.7C87.4,8.6,77.2,5.8,67.7,4.7
	c-7.2-0.8-14.1-0.6-20.2,0.2c-0.6,0-1.1,0.1-1.7,0.2c-3.5,0.3-12,1.6-22.7,6.3c-3.7,1.7-5.9,2.9-5.9,2.9s8.3-7.9,26.3-13.1l-1-1.2
	c0,0-13.7-0.3-28.1,10.5c0,0-14.4,26.1-14.4,58.3c0,0,8.4,14.5,30.5,15.2c0,0,3.7-4.5,6.7-8.3c-12.7-3.8-17.5-11.8-17.5-11.8
	s1,0.7,2.8,1.7c0.1,0.1,0.2,0.2,0.4,0.3c0.3,0.2,0.6,0.3,0.9,0.5c2.5,1.4,5,2.5,7.3,3.4c4.1,1.6,9,3.2,14.7,4.3
	c7.5,1.4,16.3,1.9,25.9,0.1c4.7-0.8,9.5-2.2,14.5-4.3c3.5-1.3,7.4-3.2,11.5-5.9c0,0-5,8.2-18.1,11.9c3,3.8,6.6,8.1,6.6,8.1
	c22.1-0.7,30.6-15.2,30.6-15.2C116.8,36.6,102.4,10.5,102.4,10.5z M39.7,59.5c-5.6,0-10.2-5-10.2-11.1S34,37.3,39.7,37.3
	c5.7,0,10.3,5,10.2,11.1C49.9,54.5,45.4,59.5,39.7,59.5z M76.2,59.5c-5.6,0-10.2-5-10.2-11.1s4.5-11.1,10.2-11.1
	c5.7,0,10.2,5,10.2,11.1S81.9,59.5,76.2,59.5z"/>
</svg>
