<?xml version="1.0" encoding="utf-8"?>
<!-- Generator: Adobe Illustrator 22.1.0, SVG Export Plug-In . SVG Version: 6.00 Build 0)  -->
<svg version="1.1" id="Слой_1" xmlns="http://www.w3.org/2000/svg" xmlns:xlink="http://www.w3.org/1999/xlink" x="0px" y="0px"
	 viewBox="0 0 639 741" style="enable-background:new 0 0 639 741;" xml:space="preserve">
<style type="text/css">
	.st0{fill:#E5C050;stroke:#202124;stroke-width:25;stroke-miterlimit:10;}
	.st1{fill:#FFFFFF;}
	.st2{fill:#202124;}
	.st3{fill:#E5C050;stroke:#202124;stroke-width:7;stroke-miterlimit:10;}
	.st4{fill:#62ED89;stroke:#202124;stroke-width:14;stroke-miterlimit:10;}
</style>
<path class="st0" d="M466.9,643.5H55.1c-22.4,0-40.6-18.2-40.6-40.6V54.1c0-22.4,18.2-40.6,40.6-40.6h411.8
	c22.4,0,40.6,18.2,40.6,40.6v548.8C507.5,625.3,489.3,643.5,466.9,643.5z"/>
<path class="st1" d="M469,107H49c-6.6,0-12-5.4-12-12V69c0-6.6,5.4-12,12-12h420c6.6,0,12,5.4,12,12v26C481,101.6,475.6,107,469,107
	z"/>
<path class="st1" d="M469,191H49c-6.6,0-12-5.4-12-12v-26c0-6.6,5.4-12,12-12h420c6.6,0,12,5.4,12,12v26
	C481,185.6,475.6,191,469,191z"/>
<circle class="st2" cx="73" cy="244" r="12"/>
<path class="st2" d="M373,243H91c-3.3,0-6-2.7-6-6l0,0c0-3.3,2.7-6,6-6h282c3.3,0,6,2.7,6,6l0,0C379,240.3,376.3,243,373,243z"/>
<circle class="st2" cx="73" cy="280" r="12"/>
<path class="st2" d="M373,279H91c-3.3,0-6-2.7-6-6l0,0c0-3.3,2.7-6,6-6h282c3.3,0,6,2.7,6,6l0,0C379,276.3,376.3,279,373,279z"/>
<circle class="st2" cx="73" cy="316" r="12"/>
<path class="st2" d="M373,315H91c-3.3,0-6-2.7-6-6l0,0c0-3.3,2.7-6,6-6h282c3.3,0,6,2.7,6,6l0,0C379,312.3,376.3,315,373,315z"/>
<path class="st3" d="M390.5,409H158c-6.6,0-12-5.4-12-12v-31c0-6.6,5.4-12,12-12h232.5c6.6,0,12,5.4,12,12v31
	C402.5,403.6,397.1,409,390.5,409z"/>
<ellipse class="st4" cx="464" cy="591" rx="143" ry="142.6"/>
<path class="st2" d="M422.8,701.8l-77.6-77.6c-3.7-3.7-3.7-9.8,0-13.5l8.5-8.5c3.7-3.7,9.8-3.7,13.5,0l77.6,77.6
	c3.7,3.7,3.7,9.8,0,13.5l-8.5,8.5C432.6,705.6,426.6,705.6,422.8,701.8z"/>
<path class="st2" d="M636.2,502.2L435.6,702.7c-3.2,3.2-8.5,3.2-11.7,0l-10.5-10.5c-3.2-3.2-3.2-8.5,0-11.7L614,480
	c3.2-3.2,8.5-3.2,11.7,0l10.5,10.5C639.4,493.7,639.4,498.9,636.2,502.2z"/>
</svg>
