<?xml version="1.0" encoding="utf-8"?>
<!-- Generator: Adobe Illustrator 22.1.0, SVG Export Plug-In . SVG Version: 6.00 Build 0)  -->
<svg version="1.1" id="Слой_1" xmlns="http://www.w3.org/2000/svg" xmlns:xlink="http://www.w3.org/1999/xlink" x="0px" y="0px"
	 viewBox="0 0 38 48" style="enable-background:new 0 0 38 48;" xml:space="preserve">
<style type="text/css">
	.st0{fill:#9AA0A6;}
</style>
<g>
	<path class="st0" d="M29,32v7.4c0,4.2-3.4,7.6-7.6,7.6H8.6C4.4,47,1,43.6,1,39.4V8.6C1,4.4,4.4,1,8.6,1h12.7C25.6,1,29,4.4,29,8.6
		V15h1V7.6C30,3.4,26.6,0,22.4,0H7.6C3.4,0,0,3.4,0,7.6v32.7C0,44.6,3.4,48,7.6,48h14.7c4.2,0,7.6-3.4,7.6-7.6V32H29z"/>
</g>
<rect x="15" y="22.5" class="st0" width="23" height="1"/>
<rect x="13.1" y="20.7" transform="matrix(0.7071 -0.7071 0.7071 0.7071 -10.3751 17.5523)" class="st0" width="5.8" height="1.2"/>
<rect x="13.1" y="24" transform="matrix(0.7071 0.7071 -0.7071 0.7071 22.0811 -4.1085)" class="st0" width="5.8" height="1.2"/>
</svg>
