<?xml version="1.0" encoding="utf-8"?>
<!-- Generator: Adobe Illustrator 22.1.0, SVG Export Plug-In . SVG Version: 6.00 Build 0)  -->
<svg version="1.1" id="Capa_1" xmlns="http://www.w3.org/2000/svg" xmlns:xlink="http://www.w3.org/1999/xlink" x="0px" y="0px"
	 viewBox="0 0 512 353.4" style="enable-background:new 0 0 512 353.4;" xml:space="preserve">
<style type="text/css">
	.st0{fill:#9AA0A6;}
</style>
<g>
	<g>
		<path class="st0" d="M480,1.4H32c-17.6,0-32,14.4-32,32v48.3v0v239.7c0,17.6,14.4,32,32,32h448c17.6,0,32-14.4,32-32V81.7v0V33.4
			C512,15.7,497.6,1.4,480,1.4z M32,33.4h448v37.2l-224,89.6L32,70.5V33.4z M480,337.4v-16H32V105l218,87.2c1.9,0.7,3.9,1.1,6,1.1
			c2,0,4-0.4,6-1.2L480,105v216.4c0,0,0,0,0,0L480,337.4z"/>
	</g>
</g>
</svg>
