<?xml version="1.0" encoding="utf-8"?>
<!-- Generator: Adobe Illustrator 22.1.0, SVG Export Plug-In . SVG Version: 6.00 Build 0)  -->
<svg version="1.1" id="Слой_1" xmlns="http://www.w3.org/2000/svg" xmlns:xlink="http://www.w3.org/1999/xlink" x="0px" y="0px"
	 viewBox="0 0 136 148" style="enable-background:new 0 0 136 148;" xml:space="preserve">
<style type="text/css">
	.st0{fill:#393B3D;}
</style>
<g>
	<path class="st0" d="M121.4,26L82.8,3.8c-9.1-5.1-20.5-5.1-29.6,0L14.6,26C5.5,31.1-0.2,40.8-0.2,51.6v44.9
		c0,10.2,5.7,20.5,14.8,25.6l38.7,22.2c9.1,5.1,20.5,5.1,29.6,0l38.7-22.2c9.1-5.1,14.8-14.8,14.8-25.6V51.6
		C136.2,41.4,130.5,31.7,121.4,26z M124.9,95.9c0,6.8-4,13.1-9.7,16.5L77.7,134c-6.3,3.4-13.6,3.4-19.3,0l-37.5-21.6
		c-6.3-3.4-9.7-9.7-9.7-16.5V52.2c0-6.8,3.4-13.1,9.7-16.5l37.5-21.6c6.3-3.4,13.1-3.4,19.3,0l37.5,21.6c6.3,3.4,9.7,9.7,9.7,16.5
		V95.9z"/>
</g>
<g>
	<path class="st0" d="M73.4,130v9.8c0,2.6-2.1,4.8-4.7,4.8c-2.7,0-5-2.2-5-4.8v-9.5c-13.8-1-27.3-7.9-33-19.9
		c-0.6-1.3-1.6-2.9-1.6-4.7c0-2.9,1.8-5.1,4.8-5.1c2.7,0,4.5,1.6,5.6,3.7c5.1,10.3,15.1,15.9,27.6,15.9c13,0,26.6-5.9,26.6-20.5
		c0-12.7-10.3-16.8-22.9-21.7l-11.2-4.3C44.1,67.8,32.7,59,32.7,44.2C32.7,28,46.3,17.1,63.8,16V6.7c0-2.6,2.2-4.8,5-4.8
		c2.6,0,4.7,2.2,4.7,4.8v9.9c11.7,1.9,20,8.7,24.5,16c1.4,2.4,2.1,4,2.1,5.6c0,2.6-1.8,4.7-4.7,4.7c-2.6,0-4-1.3-5.3-3.2
		c-4.8-7.5-11.2-13.6-23.6-13.6c-13.6,0-22.8,6.7-22.8,18c0,9.8,6.9,15.6,18.4,20l10.1,4C91.7,75.5,105,82.5,105,99.7
		C105,117.5,89.8,127.9,73.4,130z"/>
</g>
</svg>
