<?xml version="1.0" encoding="utf-8"?>
<!-- Generator: Adobe Illustrator 22.1.0, SVG Export Plug-In . SVG Version: 6.00 Build 0)  -->
<svg version="1.1" id="Слой_1" xmlns="http://www.w3.org/2000/svg" xmlns:xlink="http://www.w3.org/1999/xlink" x="0px" y="0px"
	 viewBox="0 0 24 26.1" style="enable-background:new 0 0 24 26.1;" xml:space="preserve">
<style type="text/css">
	.st0{fill:#393B3D;}
</style>
<path id="Fill-1" class="st0" d="M21.4,4.6C23,5.6,24,7.3,24,9.1V17c0,1.9-1,3.6-2.6,4.5l-6.8,3.9c-1.6,0.9-3.6,0.9-5.2,0l-6.8-3.9
	C1,20.6,0,18.8,0,17V9.1c0-1.9,1-3.6,2.6-4.5l6.8-3.9c1.6-0.9,3.6-0.9,5.2,0L21.4,4.6z M10.3,2.5L3.7,6.3C2.6,6.9,2,8,2,9.2v7.7
	c0,1.2,0.6,2.3,1.7,2.9l6.6,3.8c1,0.6,2.3,0.6,3.4,0l6.6-3.8c1-0.6,1.7-1.7,1.7-2.9V9.2c0-1.2-0.6-2.3-1.7-2.9l-6.6-3.8
	C12.6,1.9,11.4,1.9,10.3,2.5L10.3,2.5z M13.4,4.6l5.2,3C19.5,8.1,20,9,20,10v6c0,1-0.5,1.9-1.4,2.4l-5.2,3c-0.9,0.5-1.9,0.5-2.8,0
	l-5.2-3C4.5,18,4,17.1,4,16.1v-6c0-1,0.5-1.9,1.4-2.4l5.2-3C11.5,4.1,12.5,4.1,13.4,4.6L13.4,4.6z M9,16.1h6v-6H9V16.1z"/>
</svg>
