<?xml version="1.0" encoding="utf-8"?>
<!-- Generator: Adobe Illustrator 22.1.0, SVG Export Plug-In . SVG Version: 6.00 Build 0)  -->
<svg version="1.1" id="Слой_1" xmlns="http://www.w3.org/2000/svg" xmlns:xlink="http://www.w3.org/1999/xlink" x="0px" y="0px"
	 viewBox="0 0 512 300.3" style="enable-background:new 0 0 512 300.3;" xml:space="preserve">
<style type="text/css">
	.st0{fill:#9AA0A6;}
</style>
<path class="st0" d="M424.9,172.9c-8.3-10.5-5.9-15.1,0-24.4c0.1-0.1,68.4-94.5,75.5-126.5l0,0c3.5-11.7,0-20.2-16.9-20.2h-56
	c-14.3,0-20.8,7.4-24.3,15.6c0,0-28.5,68.2-68.8,112.4c-13,12.8-19,16.9-26.1,16.9c-3.5,0-8.9-4.1-8.9-15.8V21.9
	c0-14-4-20.2-15.8-20.2h-88c-8.9,0-14.3,6.5-14.3,12.6c0,13.3,20.2,16.3,22.3,53.7v81c0,17.7-3.2,21-10.4,21
	c-19,0-65.2-68.5-92.6-146.9C95,7.8,89.6,1.7,75.2,1.7h-56C3.2,1.7,0,9,0,17.3c0,14.5,19,86.9,88.5,182.5
	C134.8,265,200,300.3,259.3,300.3c35.6,0,40-7.9,40-21.4c0-62.3-3.2-68.2,14.6-68.2c8.3,0,22.5,4.1,55.8,35.6
	c38,37.3,44.3,54,65.6,54h56c16,0,24-7.9,19.4-23.3C500,244.4,428.1,177.4,424.9,172.9z"/>
</svg>
